<svg xmlns="http://www.w3.org/2000/svg" width="760" height="342" viewBox="0 0 760 342" role="img" aria-label="Commits por proyecto">
<defs><linearGradient id="gNido2" x1="0" y1="0" x2="1" y2="0"><stop offset="0" stop-color="#ee8b60"/><stop offset="1" stop-color="#f5b193"/></linearGradient></defs>
<rect width="760" height="342" rx="12" fill="#1b2536" stroke="rgba(255,255,255,0.13)"/>
<text x="42" y="30" font-size="16" font-weight="800" fill="#f5f7fa" font-family="-apple-system,Segoe UI,Helvetica,Arial,sans-serif">¿Dónde se ha trabajado? — últimos 30 días</text>
<text x="718" y="30" text-anchor="end" font-size="13" font-weight="700" fill="#ee8b60" font-family="-apple-system,Segoe UI,Helvetica,Arial,sans-serif">47 commits</text>
<g font-family="-apple-system,Segoe UI,Helvetica,Arial,sans-serif"><text x="220" y="73" text-anchor="end" font-size="13" font-weight="600" fill="#f5f7fa">Mis_Actas</text><rect x="232" y="60" width="434" height="18" rx="5" fill="rgba(255,255,255,0.07)"/><rect x="232" y="60" width="434.0" height="18" rx="5" fill="url(#gNido2)"/><text x="676.0" y="73" font-size="12" font-weight="700" fill="#f5b193">10</text><text x="220" y="107" text-anchor="end" font-size="13" font-weight="600" fill="#f5f7fa">Manten.App</text><rect x="232" y="94" width="434" height="18" rx="5" fill="rgba(255,255,255,0.07)"/><rect x="232" y="94" width="434.0" height="18" rx="5" fill="url(#gNido2)"/><text x="676.0" y="107" font-size="12" font-weight="700" fill="#f5b193">10</text><text x="220" y="141" text-anchor="end" font-size="13" font-weight="600" fill="#f5f7fa">CoeYDuca</text><rect x="232" y="128" width="434" height="18" rx="5" fill="rgba(255,255,255,0.07)"/><rect x="232" y="128" width="217.0" height="18" rx="5" fill="url(#gNido2)"/><text x="459.0" y="141" font-size="12" font-weight="700" fill="#f5b193">5</text><text x="220" y="175" text-anchor="end" font-size="13" font-weight="600" fill="#f5f7fa">mis_partes</text><rect x="232" y="162" width="434" height="18" rx="5" fill="rgba(255,255,255,0.07)"/><rect x="232" y="162" width="130.2" height="18" rx="5" fill="url(#gNido2)"/><text x="372.2" y="175" font-size="12" font-weight="700" fill="#f5b193">3</text><text x="220" y="209" text-anchor="end" font-size="13" font-weight="600" fill="#f5f7fa">el-altavoz</text><rect x="232" y="196" width="434" height="18" rx="5" fill="rgba(255,255,255,0.07)"/><rect x="232" y="196" width="130.2" height="18" rx="5" fill="url(#gNido2)"/><text x="372.2" y="209" font-size="12" font-weight="700" fill="#f5b193">3</text><text x="220" y="243" text-anchor="end" font-size="13" font-weight="600" fill="#f5f7fa">nidodeideas-web</text><rect x="232" y="230" width="434" height="18" rx="5" fill="rgba(255,255,255,0.07)"/><rect x="232" y="230" width="86.8" height="18" rx="5" fill="url(#gNido2)"/><text x="328.8" y="243" font-size="12" font-weight="700" fill="#f5b193">2</text><text x="220" y="277" text-anchor="end" font-size="13" font-weight="600" fill="#f5f7fa">QrActivos</text><rect x="232" y="264" width="434" height="18" rx="5" fill="rgba(255,255,255,0.07)"/><rect x="232" y="264" width="86.8" height="18" rx="5" fill="url(#gNido2)"/><text x="328.8" y="277" font-size="12" font-weight="700" fill="#f5b193">2</text><text x="220" y="311" text-anchor="end" font-size="13" font-weight="600" fill="#f5f7fa">siloe</text><rect x="232" y="298" width="434" height="18" rx="5" fill="rgba(255,255,255,0.07)"/><rect x="232" y="298" width="86.8" height="18" rx="5" fill="url(#gNido2)"/><text x="328.8" y="311" font-size="12" font-weight="700" fill="#f5b193">2</text></g>
</svg>